<svg xmlns="http://www.w3.org/2000/svg" xmlns:xlink="http://www.w3.org/1999/xlink" viewBox="0 0 468 429" shape-rendering="geometricPrecision" text-rendering="geometricPrecision"><g transform="translate(2.746719-.019508)"><g transform="translate(7.785905 14.702489)"><g clip-rule="evenodd"><path d="M191.5,294.5c4.481,1.148,9.148,1.315,14,.5-.744-1.039-1.744-1.539-3-1.5-18.11-3.2-34.443-10.367-49-21.5-13.22-11.385-25.22-23.885-36-37.5.209-.586.543-1.086,1-1.5c7.258-2.327,14.591-2.993,22-2-15.512-14.029-33.512-18.696-54-14c25.66-14.566,52.993-19.4,82-14.5-1.188-45.275,18.479-77.775,59-97.5c43.152-14.8337,80.319-5.667,111.5,27.5c27.542,38.965,28.542,78.632,3,119-19.286,22.896-43.453,38.062-72.5,45.5-28.106,6.33-56.106,5.997-84-1-.667-.333-1.333-.667-2-1c2.646-.497,5.313-.664,8-.5Z" clip-rule="evenodd" fill="#fdfdfd" fill-rule="evenodd"/></g><g transform="translate(-6 8.847507)"><g clip-rule="evenodd"><path d="M209.5,128.5c1.052-.149,2.052.017,3,.5c9.667,10.333,19.333,20.667,29,31c16.677.833,33.343.666,50-.5c9.849-10.015,19.516-20.182,29-30.5.667-.667,1.333-.667,2,0c1.363,1.945,2.197,4.112,2.5,6.5c3.826,23.616,7.326,47.282,10.5,71-.333,1.667-.667,3.333-1,5-23.504,9.246-44.171,22.746-62,40.5-4,2-8,2-12,0-17.858-18.433-38.858-32.1-63-41c2.62-27.57,6.62-55.07,12-82.5Z" clip-rule="evenodd" fill="#ffb30d" fill-rule="evenodd"/></g><g clip-rule="evenodd"><path d="M226.5,196.5c12.205.87,18.539,7.204,19,19-10.991-1.631-17.324-7.965-19-19Z" clip-rule="evenodd" fill="#fffdf8" fill-rule="evenodd"/></g><g clip-rule="evenodd"><path d="M302.5,196.5c1.478-.262,2.811.071,4,1-2.748,11.454-9.748,17.121-21,17c2.314-9.31,7.98-15.31,17-18Z" clip-rule="evenodd" fill="#fffcf7" fill-rule="evenodd"/></g><g clip-rule="evenodd"><path d="M261.5,229.5c3.35-.165,6.683.002,10,.5c4.726,2.418,5.226,5.585,1.5,9.5-1.896,2.03-4.063,3.697-6.5,5-5.506-2.306-8.339-6.306-8.5-12c1.145-1.136,2.312-2.136,3.5-3Z" clip-rule="evenodd" fill="#fffcf7" fill-rule="evenodd"/></g></g></g></g></svg>
